<svg width="45" height="44" viewBox="0 0 45 44" fill="none" xmlns="http://www.w3.org/2000/svg">
<rect x="0.666687" width="44" height="44" rx="8" fill="#FFF8E3"/>
<path d="M12.1667 18.5V30.1667C12.1667 30.7855 12.4125 31.379 12.8501 31.8166C13.2877 32.2542 13.8812 32.5 14.5 32.5H30.8334C31.4522 32.5 32.0457 32.2542 32.4833 31.8166C32.9209 31.379 33.1667 30.7855 33.1667 30.1667V18.5" stroke="#FFBF35" stroke-width="1.75"/>
<path d="M32.5658 11.5H27.9085L28.4918 17.3333C28.4918 17.3333 29.6585 18.5 31.4085 18.5C32.3272 18.5012 33.2146 18.1668 33.904 17.5597C33.9769 17.4916 34.0312 17.406 34.0618 17.3111C34.0924 17.2162 34.0983 17.115 34.079 17.0172L33.2553 12.0833C33.2278 11.9203 33.1434 11.7724 33.0173 11.6656C32.8911 11.5588 32.7311 11.5002 32.5658 11.5Z" stroke="#FFBF35" stroke-width="1.75"/>
<path d="M27.9085 11.5L28.4918 17.3333C28.4918 17.3333 27.3252 18.5 25.5752 18.5C23.8252 18.5 22.6585 17.3333 22.6585 17.3333V11.5H27.9085Z" stroke="#FFBF35" stroke-width="1.75"/>
<path d="M22.6585 11.5V17.3333C22.6585 17.3333 21.4919 18.5 19.7419 18.5C17.9919 18.5 16.8252 17.3333 16.8252 17.3333L17.4085 11.5H22.6585Z" stroke="#FFBF35" stroke-width="1.75"/>
<path d="M17.4085 11.5H12.7523C12.5867 11.4999 12.4263 11.5586 12.2999 11.6657C12.1734 11.7727 12.089 11.9211 12.0617 12.0845L11.2392 17.0183C11.22 17.1162 11.2259 17.2173 11.2565 17.3122C11.2872 17.4071 11.3414 17.4927 11.4142 17.5608C11.7968 17.8992 12.652 18.5012 13.9085 18.5012C15.6585 18.5012 16.8252 17.3345 16.8252 17.3345L17.4085 11.5Z" stroke="#FFBF35" stroke-width="1.75"/>
</svg>
